<?xml version="1.0" encoding="iso-8859-1"?>
<!-- Uploaded to: SVG Repo, www.svgrepo.com, Generator: SVG Repo Mixer Tools -->
<svg height="800px" width="800px" version="1.1" id="Layer_1" xmlns="http://www.w3.org/2000/svg" xmlns:xlink="http://www.w3.org/1999/xlink" 
	 viewBox="0 0 512.001 512.001" xml:space="preserve">
<polygon style="fill:#E6EAEA;" points="64.68,147.295 64.68,421.231 147.296,503.847 373.402,503.847 373.402,147.295 "/>
<polygon style="fill:#CDD4D5;" points="64.68,147.295 64.68,421.231 147.296,503.847 221.215,503.847 221.215,147.295 "/>
<g>
	<path style="fill:#F0353D;" d="M325.572,220.671H112.51c-4.503,0-8.153-3.649-8.153-8.153c0-4.504,3.65-8.153,8.153-8.153h213.062
		c4.503,0,8.153,3.649,8.153,8.153C333.725,217.022,330.074,220.671,325.572,220.671z"/>
	<path style="fill:#F0353D;" d="M325.572,290.242H112.51c-4.503,0-8.153-3.649-8.153-8.153c0-4.504,3.65-8.153,8.153-8.153h213.062
		c4.503,0,8.153,3.649,8.153,8.153C333.725,286.593,330.074,290.242,325.572,290.242z"/>
	<path style="fill:#F0353D;" d="M325.572,359.813H112.51c-4.503,0-8.153-3.649-8.153-8.153c0-4.504,3.65-8.153,8.153-8.153h213.062
		c4.503,0,8.153,3.649,8.153,8.153C333.725,356.164,330.074,359.813,325.572,359.813z"/>
	<path style="fill:#F0353D;" d="M325.572,429.384H112.51c-4.503,0-8.153-3.649-8.153-8.153s3.65-8.153,8.153-8.153h213.062
		c4.503,0,8.153,3.649,8.153,8.153S330.074,429.384,325.572,429.384z"/>
</g>
<polygon style="fill:#9BAAAB;" points="147.296,421.231 64.68,421.231 147.296,503.847 "/>
<polygon style="fill:#4ACFD9;" points="377.75,8.153 195.126,8.153 125.555,8.153 125.555,86.42 125.555,121.206 153.383,86.42 
	247.304,86.42 247.304,373.401 325.572,373.401 325.572,86.42 419.493,86.42 447.321,121.206 447.321,86.42 447.321,8.153 "/>
<polygon style="fill:#0295AA;" points="195.126,8.153 125.555,8.153 125.555,86.42 125.555,121.206 153.383,86.42 247.304,86.42 
	247.304,373.401 286.438,373.401 286.438,8.153 "/>
<g>
	<path style="fill:#FFFFFF;" d="M425.58,46.743h-56.527c-4.503,0-8.153-3.649-8.153-8.153s3.65-8.153,8.153-8.153h56.527
		c4.503,0,8.153,3.649,8.153,8.153S430.083,46.743,425.58,46.743z"/>
	<path style="fill:#FFFFFF;" d="M338.616,46.743h-39.134c-4.503,0-8.153-3.649-8.153-8.153s3.65-8.153,8.153-8.153h39.134
		c4.503,0,8.153,3.649,8.153,8.153S343.119,46.743,338.616,46.743z"/>
</g>
<path d="M447.321,0H125.555c-4.503,0-8.153,3.649-8.153,8.153v113.053c0,3.463,2.187,6.546,5.455,7.693
	c3.267,1.145,6.902,0.103,9.065-2.6l25.38-31.726h81.849v44.569H64.68c-4.503,0-8.153,3.649-8.153,8.153v273.933
	c0,0.27,0.014,0.539,0.04,0.809c0.012,0.116,0.034,0.229,0.05,0.345c0.021,0.148,0.039,0.297,0.067,0.444
	c0.027,0.134,0.063,0.264,0.097,0.396c0.032,0.126,0.06,0.253,0.097,0.377c0.039,0.13,0.088,0.257,0.134,0.384
	c0.045,0.124,0.085,0.248,0.135,0.37c0.05,0.12,0.108,0.234,0.162,0.35c0.059,0.125,0.114,0.25,0.179,0.373
	c0.06,0.112,0.128,0.22,0.193,0.328c0.071,0.118,0.138,0.239,0.216,0.355c0.08,0.121,0.171,0.234,0.258,0.35
	c0.073,0.097,0.14,0.197,0.217,0.291c0.161,0.196,0.332,0.384,0.51,0.564c0.011,0.011,0.02,0.023,0.03,0.034l82.616,82.616
	c0.012,0.012,0.026,0.023,0.038,0.035c0.178,0.176,0.364,0.346,0.559,0.505c0.095,0.077,0.193,0.145,0.29,0.216
	c0.116,0.087,0.23,0.177,0.351,0.258c0.114,0.076,0.234,0.143,0.35,0.213c0.111,0.066,0.22,0.136,0.334,0.198
	c0.12,0.064,0.242,0.118,0.365,0.176c0.118,0.057,0.236,0.115,0.358,0.166c0.12,0.049,0.241,0.089,0.362,0.133
	c0.129,0.047,0.259,0.097,0.391,0.137c0.121,0.037,0.242,0.063,0.364,0.094c0.136,0.035,0.271,0.073,0.41,0.1
	c0.141,0.028,0.283,0.045,0.425,0.065c0.122,0.017,0.24,0.04,0.363,0.052c0.267,0.026,0.536,0.04,0.804,0.04H373.4
	c4.503,0,8.153-3.649,8.153-8.153V147.296c0-4.504-3.65-8.153-8.153-8.153h-39.675v-44.57h81.849l25.38,31.727
	c2.163,2.702,5.797,3.745,9.065,2.6c3.268-1.147,5.455-4.231,5.455-7.693V8.153C455.474,3.649,451.824,0,447.321,0z M112.51,429.384
	h26.633v54.78l-54.78-54.78H112.51z M365.249,495.694h-209.8v-74.463c0-4.504-3.65-8.153-8.153-8.153H112.51H72.833V155.448h166.318
	v57.07v69.571v69.571v21.741c0,4.504,3.65,8.153,8.153,8.153h78.268c4.503,0,8.153-3.649,8.153-8.153V351.66v-69.571v-69.571v-57.07
	h31.524V495.694z M439.168,97.964l-13.31-16.637c-1.547-1.933-3.889-3.059-6.366-3.059h-93.921c-4.503,0-8.153,3.649-8.153,8.153
	v60.875v65.223v69.571v69.571v13.588h-61.962V351.66v-69.571v-69.571v-65.223V86.42c0-4.504-3.65-8.153-8.153-8.153h-93.921
	c-2.476,0-4.819,1.126-6.366,3.059l-13.31,16.637V16.306h305.461V97.964z"/>
</svg>